<svg xmlns="http://www.w3.org/2000/svg" viewBox="0 0 512 512" width="512" height="512">
  <defs>
    <linearGradient id="bg" x1="0%" y1="0%" x2="100%" y2="100%">
      <stop offset="0%"   stop-color="#0F3460"/>
      <stop offset="100%" stop-color="#1F5AA0"/>
    </linearGradient>
  </defs>

  <!-- Rounded-rect background (squircle) -->
  <rect width="512" height="512" rx="112" ry="112" fill="url(#bg)"/>

  <!-- Python snake — original viewBox 0 0 110 110, scaled ×2.95 centered in 512×512
       offset = (512 - 110*2.95) / 2 ≈ 93.75                                      -->
  <g transform="translate(93.75, 93.75) scale(2.95)" fill="white">
    <!-- Top snake body -->
    <path d="M53.8,4.1c-24.8,0-23.3,10.7-23.3,10.7l0,11h23.8v3.4H30.4
             c0,0-15.3,2.4-15.3,21.8c0,19.4,13.3,20.6,13.3,20.6h6.7v-9.6
             c0,0-0.4-11.2,11.4-11.2h16c0,0,10.1-0.8,10.1-10.5V14.1
             C72.5,14.1,72.6,4.1,53.8,4.1z
             M39.4,11.5c2.4,0,4.4,2,4.4,4.4c0,2.4-2,4.4-4.4,4.4
             c-2.4,0-4.4-2-4.4-4.4C35.1,13.5,37,11.5,39.4,11.5z"/>
    <!-- Bottom snake body -->
    <path d="M55.7,105.8c24.8,0,23.3-10.7,23.3-10.7l0-11H55.2v-3.4h23.8
             c0,0,15.3-2.4,15.3-21.8c0-19.4-13.3-20.6-13.3-20.6H74.3v9.6
             c0,0,0.4,11.2-11.4,11.2H46.9c0,0-10.1,0.8-10.1,10.5v26.2
             C36.9,95.8,36.8,105.8,55.7,105.8z
             M70.1,98.4c-2.4,0-4.4-2-4.4-4.4c0-2.4,2-4.4,4.4-4.4
             c2.4,0,4.4,2,4.4,4.4C74.5,96.4,72.5,98.4,70.1,98.4z"/>
  </g>
</svg>
